<svg width="31" height="31" viewBox="0 0 31 31" fill="none" xmlns="http://www.w3.org/2000/svg">
<g clip-path="url(#clip0_15_253)">
<path d="M15.0481 8.74668C10.7773 8.74668 7.3325 11.7565 7.3325 15.4879C7.3325 19.2194 10.7773 22.2292 15.0481 22.2292C19.3188 22.2292 22.7636 19.2194 22.7636 15.4879C22.7636 11.7565 19.3188 8.74668 15.0481 8.74668ZM15.0481 19.8706C12.2882 19.8706 10.0319 17.9052 10.0319 15.4879C10.0319 13.0707 12.2815 11.1052 15.0481 11.1052C17.8147 11.1052 20.0642 13.0707 20.0642 15.4879C20.0642 17.9052 17.8079 19.8706 15.0481 19.8706ZM24.8789 8.47093C24.8789 9.34512 24.0731 10.0433 23.0792 10.0433C22.0787 10.0433 21.2796 9.33925 21.2796 8.47093C21.2796 7.6026 22.0854 6.89855 23.0792 6.89855C24.0731 6.89855 24.8789 7.6026 24.8789 8.47093ZM29.989 10.0668C29.8748 7.96049 29.3242 6.09476 27.5582 4.55759C25.7988 3.02042 23.6634 2.53932 21.2528 2.43371C18.7682 2.31051 11.3212 2.31051 8.83667 2.43371C6.43269 2.53346 4.29731 3.01455 2.53126 4.55173C0.765209 6.0889 0.221292 7.95462 0.100421 10.0609C-0.0405945 12.2317 -0.0405945 18.7383 0.100421 20.9091C0.214576 23.0154 0.765209 24.8811 2.53126 26.4183C4.29731 27.9555 6.42598 28.4366 8.83667 28.5422C11.3212 28.6654 18.7682 28.6654 21.2528 28.5422C23.6634 28.4424 25.7988 27.9613 27.5582 26.4183C29.3175 24.8811 29.8681 23.0154 29.989 20.9091C30.13 18.7383 30.13 12.2376 29.989 10.0668ZM26.7792 23.2383C26.2554 24.3883 25.2415 25.2742 23.9186 25.7377C21.9377 26.4242 17.2372 26.2657 15.0481 26.2657C12.859 26.2657 8.15174 26.4183 6.17752 25.7377C4.86137 25.2801 3.84741 24.3941 3.31692 23.2383C2.53126 21.5075 2.71257 17.4006 2.71257 15.4879C2.71257 13.5753 2.53798 9.46246 3.31692 7.73754C3.84069 6.5876 4.85466 5.70167 6.17752 5.23817C8.15845 4.55173 12.859 4.71014 15.0481 4.71014C17.2372 4.71014 21.9444 4.55759 23.9186 5.23817C25.2348 5.6958 26.2487 6.58173 26.7792 7.73754C27.5649 9.46833 27.3836 13.5753 27.3836 15.4879C27.3836 17.4006 27.5649 21.5134 26.7792 23.2383Z" fill="white"/>
</g>
<defs>
<clipPath id="clip0_15_253">
<rect width="30.0833" height="30.0394" fill="white" transform="translate(9.15527e-05 0.474121)"/>
</clipPath>
</defs>
</svg>
