<svg width="51" height="45" viewBox="0 0 51 45" fill="none" xmlns="http://www.w3.org/2000/svg">
<g clip-path="url(#clip0_15_256)">
<path d="M15.9458 35.4359V16.8077H8.77947V35.4359H15.9458ZM12.3636 14.2628C14.8626 14.2628 16.4181 12.8323 16.4181 11.0448C16.3715 9.2169 14.8627 7.82617 12.411 7.82617C9.95967 7.82617 8.35666 9.21693 8.35666 11.0448C8.35666 12.8324 9.9118 14.2628 12.3168 14.2628H12.3633H12.3636ZM19.9123 35.4359H27.0786V25.033C27.0786 24.4763 27.1252 23.9201 27.3144 23.5221C27.8325 22.4097 29.0116 21.2576 30.9913 21.2576C33.5845 21.2576 34.6219 22.9659 34.6219 25.4701V35.4358H41.7878V24.7545C41.7878 19.0327 38.2523 16.3703 33.5373 16.3703C29.6713 16.3703 27.9739 18.2374 27.0309 19.509H27.0788V16.8073H19.9125C20.0065 18.5553 19.9125 35.4356 19.9125 35.4356L19.9123 35.4359Z" fill="white"/>
</g>
<defs>
<clipPath id="clip0_15_256">
<rect width="33.4259" height="27.6097" fill="white" transform="translate(8.35666 7.82617)"/>
</clipPath>
</defs>
</svg>
